<?xml version="1.0" standalone="no"?>
<!DOCTYPE svg PUBLIC "-//W3C//DTD SVG 20010904//EN"
 "http://www.w3.org/TR/2001/REC-SVG-20010904/DTD/svg10.dtd">
<svg version="1.0" xmlns="http://www.w3.org/2000/svg"
 width="700.000000pt" height="628.000000pt" viewBox="0 0 700.000000 628.000000"
 preserveAspectRatio="xMidYMid meet">

<g transform="translate(0.000000,628.000000) scale(0.100000,-0.100000)"
fill="#000000" stroke="none">
<path d="M0 3140 l0 -3140 3500 0 3500 0 0 3140 0 3140 -3500 0 -3500 0 0
-3140z m2780 2452 c218 -77 355 -221 421 -442 21 -71 22 -99 26 -481 6 -531
-2 -594 -95 -736 -46 -72 -200 -232 -264 -276 -96 -66 -253 -92 -407 -66 -220
37 -415 222 -466 444 -14 58 -16 143 -13 579 3 503 4 512 27 581 68 208 234
365 434 411 86 19 264 12 337 -14z m1680 0 c111 -39 182 -82 256 -157 118
-120 169 -245 192 -467 14 -134 40 -178 196 -333 72 -72 212 -200 311 -285
383 -329 689 -624 777 -750 64 -91 111 -191 138 -290 20 -76 22 -101 17 -240
-4 -133 -9 -167 -32 -240 -68 -213 -127 -291 -474 -632 l-286 -280 -6 234 c-5
201 -9 243 -28 307 -86 290 -278 478 -544 532 -91 18 -132 19 -598 17 l-500
-3 -20 -59 c-38 -111 -118 -199 -235 -257 -163 -81 -382 -31 -512 116 -38 44
-102 158 -102 183 0 10 -707 24 -727 13 -7 -3 49 -62 138 -146 165 -153 173
-161 476 -417 115 -97 228 -200 251 -230 79 -103 76 -80 75 -568 -1 -376 -3
-445 -18 -510 -42 -182 -151 -335 -295 -417 -101 -57 -189 -78 -330 -78 -117
1 -130 3 -205 33 -244 97 -368 273 -390 557 -10 113 -21 151 -66 221 -43 66
-202 226 -339 340 -47 39 -166 137 -265 219 -271 225 -495 436 -593 560 -135
171 -201 375 -189 588 14 254 127 484 333 676 38 36 156 149 262 252 105 103
192 187 192 186 1 -1 3 -92 6 -202 6 -225 18 -305 64 -424 68 -175 184 -305
343 -386 178 -89 189 -90 766 -90 l503 0 20 65 c35 113 121 209 236 263 112
52 270 49 382 -8 104 -53 198 -169 221 -270 l12 -54 396 -3 c218 -2 398 -1
401 1 10 7 -417 414 -545 518 -314 259 -401 342 -446 431 l-24 47 0 470 c0
424 2 476 18 534 67 234 254 409 485 451 75 14 239 4 302 -18z m-1 -3008 c160
-39 319 -169 385 -315 59 -127 61 -147 60 -609 0 -491 -6 -546 -76 -688 -75
-154 -194 -257 -358 -312 -91 -31 -262 -39 -349 -16 -196 50 -355 195 -422
386 -45 125 -51 216 -47 645 4 437 5 444 77 551 64 95 247 274 319 312 112 60
279 78 411 46z"/>
</g>
</svg>
